<?xml version="1.0" standalone="no"?><!DOCTYPE svg PUBLIC "-//W3C//DTD SVG 1.1//EN" "http://www.w3.org/Graphics/SVG/1.1/DTD/svg11.dtd"><svg t="1651586981911" class="icon" viewBox="0 0 1024 1024" version="1.1" xmlns="http://www.w3.org/2000/svg" p-id="1619" xmlns:xlink="http://www.w3.org/1999/xlink" width="200" height="200"><defs><style type="text/css">@font-face { font-family: feedback-iconfont; src: url("//at.alicdn.com/t/font_1031158_u69w8yhxdu.woff2?t=1630033759944") format("woff2"), url("//at.alicdn.com/t/font_1031158_u69w8yhxdu.woff?t=1630033759944") format("woff"), url("//at.alicdn.com/t/font_1031158_u69w8yhxdu.ttf?t=1630033759944") format("truetype"); }
</style></defs><path d="M813.979 512c339.728 0 18.874-555.734-150.99-261.524 169.864-294.212-471.844-294.212-301.98 0C191.145-43.734-129.709 512 210.019 512c-339.728 0-18.874 555.734 150.99 261.524-169.864 294.214 471.844 294.214 301.98 0 169.864 294.212 490.718-261.524 150.99-261.524zM518.103 718.724c-119.262 0-215.944-96.68-215.944-215.944s96.682-215.944 215.944-215.944c119.264 0 215.944 96.68 215.944 215.944s-96.68 215.944-215.944 215.944z" fill="#DE5E88" p-id="1620"></path><path d="M518.115 502.79m-215.944 0a215.944 215.944 0 1 0 431.888 0 215.944 215.944 0 1 0-431.888 0Z" fill="#FECC85" p-id="1621"></path><path d="M931.065 512c42.802-28.516 55.992-70.358 60.044-93.332 18.16-102.982-60.462-239.154-158.724-274.92-21.924-7.98-64.754-17.48-110.854 5.332-3.294-51.326-32.934-83.672-50.804-98.668-80.11-67.212-237.346-67.212-317.452 0-17.87 14.996-47.514 47.34-50.806 98.666-46.096-22.812-88.93-13.31-110.852-5.33-98.264 35.762-176.886 171.94-158.724 274.92 4.052 22.972 17.24 64.816 60.044 93.332-42.802 28.516-55.992 70.362-60.044 93.332-18.16 102.982 60.462 239.158 158.724 274.92 21.924 7.984 64.756 17.48 110.852-5.332 3.294 51.326 32.938 83.672 50.806 98.668 40.052 33.606 99.388 50.41 158.724 50.41s118.674-16.804 158.728-50.41c17.87-14.996 47.514-47.34 50.804-98.666 46.098 22.816 88.93 13.31 110.854 5.33 98.264-35.766 176.886-171.94 158.724-274.92-4.052-22.972-17.24-64.814-60.044-93.332z m-119.198 311.886c-46.692 17.002-88.052-4.988-122.906-65.36-8.28-14.34-26.624-19.26-40.97-10.978-9.624 5.558-15.006 15.64-15.002 26.01 0.004 5.086 1.298 10.24 4.024 14.96 34.854 60.368 33.222 107.172-4.846 139.118-58.394 49.002-181.938 49.002-240.336 0-38.07-31.944-39.7-78.75-4.85-139.118a29.83 29.83 0 0 0 4.022-14.96c0.004-10.368-5.374-20.452-15-26.01-14.34-8.28-32.686-3.366-40.97 10.978-34.854 60.366-76.202 82.358-122.906 65.36-71.636-26.072-133.406-133.058-120.166-208.134 8.628-48.942 48.35-73.76 118.058-73.76 16.564 0 29.992-13.43 29.992-29.992s-13.428-29.992-29.992-29.992c-69.708 0-109.426-24.816-118.058-73.76-13.238-75.076 48.53-182.062 120.166-208.134 46.698-17.008 88.052 4.99 122.906 65.36 8.28 14.342 26.624 19.258 40.97 10.978 9.624-5.558 15.002-15.64 15-26.01 0-5.086-1.298-10.24-4.022-14.96-34.854-60.368-33.222-107.172 4.85-139.118 58.4-48.998 181.936-49.004 240.336 0 38.07 31.944 39.7 78.75 4.846 139.118a29.98 29.98 0 0 0 10.978 40.97c14.348 8.284 32.686 3.368 40.97-10.978 34.854-60.368 76.21-82.35 122.906-65.36 71.64 26.072 133.406 133.06 120.166 208.134-8.628 48.942-48.35 73.76-118.056 73.76-16.562 0-29.992 13.43-29.992 29.992s13.43 29.992 29.992 29.992c69.704 0 109.426 24.816 118.056 73.76 13.242 75.074-48.526 182.062-120.166 208.134z" fill="" p-id="1622"></path><path d="M518.103 256.844c-135.61 0-245.936 110.326-245.936 245.936s110.326 245.936 245.936 245.936 245.936-110.326 245.936-245.936-110.328-245.936-245.936-245.936z m0 431.888c-102.534 0-185.952-83.418-185.952-185.952s83.418-185.952 185.952-185.952 185.952 83.418 185.952 185.952-83.422 185.952-185.952 185.952z" fill="" p-id="1623"></path><path d="M614.971 482.008h-0.024c-16.562 0-29.98 13.43-29.98 29.992s13.44 29.992 30.004 29.992 29.992-13.43 29.992-29.992-13.43-29.992-29.992-29.992zM600.013 450.738c10.416-12.882 8.416-31.764-4.466-42.178-23.55-19.04-53.218-29.524-83.55-29.524-73.318 0-132.964 59.648-132.964 132.964s59.648 132.964 132.964 132.964c16.562 0 29.992-13.43 29.992-29.992s-13.43-29.992-29.992-29.992c-40.24 0-72.98-32.74-72.98-72.98s32.74-72.98 72.98-72.98c16.892 0 32.742 5.596 45.838 16.184 12.876 10.41 31.768 8.42 42.178-4.466z" fill="" p-id="1624"></path></svg>