<?xml version="1.0" standalone="no"?><!DOCTYPE svg PUBLIC "-//W3C//DTD SVG 1.1//EN" "http://www.w3.org/Graphics/SVG/1.1/DTD/svg11.dtd"><svg t="1651588721036" class="icon" viewBox="0 0 1024 1024" version="1.1" xmlns="http://www.w3.org/2000/svg" p-id="2227" xmlns:xlink="http://www.w3.org/1999/xlink" width="200" height="200"><defs><style type="text/css">@font-face { font-family: feedback-iconfont; src: url("//at.alicdn.com/t/font_1031158_u69w8yhxdu.woff2?t=1630033759944") format("woff2"), url("//at.alicdn.com/t/font_1031158_u69w8yhxdu.woff?t=1630033759944") format("woff"), url("//at.alicdn.com/t/font_1031158_u69w8yhxdu.ttf?t=1630033759944") format("truetype"); }
</style></defs><path d="M364 433.662V810c0 82.843-67.157 150-150 150S64 892.843 64 810s67.157-150 150-150c25.282 0 49.103 6.255 70 17.3V400.677a39.861 39.861 0 0 1 0-1.446V200c0-19.455 13.998-36.089 33.168-39.412l548-95C889.626 61.348 912 80.177 912 105v199.324c0.009 0.484 0.009 0.965 0 1.446V714c0 82.843-67.157 150-150 150s-150-67.157-150-150 67.157-150 150-150c25.282 0 49.103 6.255 70 17.3V352.53l-468 81.132z m0-81.193l468-81.131V152.53l-468 81.131V352.47zM214 880c38.66 0 70-31.34 70-70s-31.34-70-70-70-70 31.34-70 70 31.34 70 70 70z m548-96c38.66 0 70-31.34 70-70s-31.34-70-70-70-70 31.34-70 70 31.34 70 70 70z" p-id="2228" fill="#A5A5A5"></path></svg>