<?xml version="1.0" standalone="no"?><!DOCTYPE svg PUBLIC "-//W3C//DTD SVG 1.1//EN" "http://www.w3.org/Graphics/SVG/1.1/DTD/svg11.dtd"><svg t="1567745863349" class="icon" viewBox="0 0 1024 1024" version="1.1" xmlns="http://www.w3.org/2000/svg" p-id="1893" xmlns:xlink="http://www.w3.org/1999/xlink" width="200" height="200"><defs><style type="text/css"></style></defs><path d="M436.7 437.6s-38.4 51.2-57-2.7c-39.2-113.7-170-88.2-164.6-208.7 2.9-65.6 53.9-99 106.5-99.2 9.7-0.3 23.9 0.3 39.7 5.8 10.8 3.7 38.4 15.4 72.3 69.9 0 0 54.6 87.8 46.5 184.7-1.5 18.4-6.4 32.7-17.8 42.3-5.4 4.6-13.2 6.9-25.6 7.9z" fill="#FFFFFF" p-id="1894"></path><path d="M403.6 469.6c-1.4 0-2.9-0.1-4.3-0.3-12.8-2-22.6-12.5-29-31-16.8-48.9-51.9-70.3-85.8-91-40.6-24.8-82.5-50.4-79.3-121.4 1.5-33.4 14.7-61.6 38.2-81.3 20.8-17.5 48.6-27.3 78.1-27.4 15-0.5 29.6 1.6 43.1 6.4 26.7 9.3 52.7 34.2 77.5 74 0.6 0.9 14.3 23.2 27.2 57.8 11.9 32 25.2 81.1 20.8 133-1.9 22.9-8.7 38.5-21.3 49.1-6.4 5.4-14.6 8.4-27 9.8-6.2 7.1-21.2 22.3-38.2 22.3zM325.7 137c-1.2 0-2.5 0-3.7 0.1h-0.3c-25 0.1-48.2 8.2-65.5 22.7-19.1 16.1-29.8 39.2-31.1 66.9-2.6 59.2 29.3 78.7 69.8 103.4 35.2 21.5 75.1 45.9 94.3 101.5 2.1 6.2 6.7 16.8 13.2 17.8 8.6 1.4 21.7-11.7 26.3-17.9 1.7-2.3 4.3-3.7 7.2-4 10.2-0.8 16.4-2.5 20-5.6 8.4-7.1 12.8-18 14.3-35.4 7.7-92.5-44.5-177.7-45.1-178.6-22.3-35.9-44.9-58-67.1-65.7-10.1-3.4-21-5.2-32.3-5.2z" fill="#543630" p-id="1895"></path><path d="M457.8 376.8c0.6-19.6-41.5-139.7-86-167.3-18.3-11.3-44.5-12.1-60.8-1.8-21.8 13.7-29.1 43.4-19.7 69 11.7 31.9 93.6 80.3 109.4 111.1 16.2 32.1 56.8-0.2 57.1-11z" fill="#FFD7E1" p-id="1896"></path><path d="M590.2 468.5s15.2 35.3 39.4-16.3C691.1 320.7 762.1 307 758.2 254c-4.2-57.9-46.8-88.8-96.1-94.1-56-4.3-92.2 33.1-109.8 94.2-16.2 56.6-13.2 126.4-4.1 163.1 9.1 36.5 10.4 47.9 42 51.3z" fill="#FFFFFF" p-id="1897"></path><path d="M604.3 490.3h-0.3c-10-0.2-16.5-7.3-20-12.5-32.4-5-36.5-21.7-44.3-53.5l-1.2-4.7c-10.1-41-11.9-111.9 4.2-168.2 20-69.8 62.7-105.8 120.2-101.4h0.3c27.8 3 52.2 13.3 70.5 29.8 20.3 18.3 32.2 43.8 34.4 73.5 2.2 29.9-15.4 48.5-39.7 74.3-24.7 26.2-58.6 62.1-89.8 128.9-10.6 22.7-21.9 33.8-34.3 33.8z m-4.9-25.8c1.4 3.1 4 5.8 4.9 5.8 0.1 0 6.3-0.9 16.3-22.3 32.6-69.7 67.7-106.9 93.4-134.1 24.2-25.7 35.8-38.9 34.3-59.2-1.8-24.8-11.2-45.1-27.9-60.1-15.1-13.6-35.6-22.2-59.1-24.8-60.1-4.5-87.1 44.8-99.2 87-15 52.4-13.3 120.5-4 157.9l1.2 4.8c8 32.4 9 36.6 32.2 39.1 3.4 0.3 6.4 2.6 7.9 5.9z" fill="#543630" p-id="1898"></path><path d="M568.4 383.6c-2.5-19.4 25.9-166.2 65.5-176.7 20.8-5.5 43.4-14.3 60.5-5.7 23 11.6 33.1 40.5 26.3 66.8-8.5 32.9-52.8 40.6-93.3 121.1-16.2 32.1-57.7 5.2-59-5.5z" fill="#FFD7E1" p-id="1899"></path><path d="M769.8 577.2c0-1.7 0.1 0.5 0.1-1.2 0-131.5-94.4-238-257.9-238S254.1 444.5 254.1 576c0 1.7 0-0.5 0.1 1.2-61.2 23-105.1 87.1-105.1 157.2 0 20.9 3.1 72.1 39.8 114.1 33.2 37.9 76.6 48.7 112.6 57.6 23.7 5.9 50.4 7.2 103.9 9.8 22.7 1.1 51.1 1 106.8 1 53.9 0 81.3-0.1 102.9-1 53-2.3 79.6-3.4 105.8-9.8 37.6-9.1 81.4-19.7 114.5-57.6 36.7-42.1 39.6-93.5 39.6-114 0-70.1-43.9-134.2-105.2-157.3z" fill="#FFFFFF" p-id="1900"></path><path d="M479.7 927c-35.3 0-56.9-0.1-75-1-54-2.6-81.2-4-105.8-10.1-36.7-9.1-82.5-20.5-117.7-60.7-36.8-42.1-42.3-93.7-42.3-120.7 0-70.9 42.9-137.3 105.1-164 1.3-66.4 26.3-126.6 70.6-169.9C363.3 353.1 431.5 328 512 328s148.7 25.1 197.2 72.6c44.3 43.4 69.3 103.5 70.6 169.9 62.2 26.7 105.1 93.1 105.1 164 0 26.9-5.4 78.5-42.3 120.7-35.1 40.2-81.8 51.5-119.3 60.7l-0.4 0.1c-27.2 6.6-54.1 7.8-107.7 10.1-22.2 1-51 1-103.3 1h-12.2c-7.1-0.1-13.7-0.1-20-0.1zM264.1 575.9c0 0.4 0.1 0.7 0.1 1.1 0.1 4.2-2.5 8.1-6.5 9.6-58.1 21.9-98.7 82.7-98.7 147.9 0 24.2 4.8 70.4 37.3 107.5 31.1 35.5 71.6 45.6 107.4 54.5 22.7 5.6 49.2 6.9 101.9 9.5 20.8 1 46.8 1 94.1 1h12.2c52 0 80.7 0 102.4-1 52.3-2.2 78.6-3.4 103.9-9.5l0.4-0.1c36.6-8.9 78-19 109-54.4 32.6-37.3 37.4-83.4 37.3-107.5 0-65.2-40.6-126-98.7-147.9-4-1.5-6.6-5.3-6.5-9.6 0-0.4 0-0.8 0.1-1.1 0-63.1-23-120.3-64.7-161C650.5 371.1 587.2 348 512 348s-138.5 23.1-183.3 66.9c-41.6 40.7-64.6 97.9-64.6 161z" fill="#543630" p-id="1901"></path><path d="M512 795.7c-5.5 0-10-4.5-10-10V673.8c0-5.5 4.5-10 10-10s10 4.5 10 10v111.9c0 5.5-4.5 10-10 10z" fill="#543630" p-id="1902"></path><path d="M778.9 678.9c8.8 45.5-18 82.3-64 84.9-39.7 2.2-75.3-13.2-80.8-50.5-5.4-37.4 19.8-70.7 58.8-80.7 34.8-8.9 78 5.1 86 46.3zM245.1 678.9c-8.8 45.5 18 82.3 64 84.9 39.7 2.2 75.3-13.2 80.8-50.5s-19.8-70.7-58.8-80.7c-34.8-8.9-78 5.1-86 46.3z" fill="#FF6687" p-id="1903"></path><path d="M523.1 674.3s15-14.8 18.9-23.8c3.9-9-1.4-18.3-11.1-19.9s-25.3-1.8-37.7 0c-11.5 1.7-14.5 13.1-11.1 19.9 3.3 6.9 18.9 23.8 18.9 23.8 6.3 6.6 16.4 5.7 22.1 0z" fill="#E2B8A3" p-id="1904"></path><path d="M511.9 688.9c-0.1 0-0.1 0 0 0-6.9 0-13.3-2.7-18.1-7.5l-0.3-0.3c-2.8-3-16.7-18.4-20.5-26.2-3.2-6.7-3-15 0.6-21.8 3.6-6.8 10.1-11.2 18.1-12.4 12.9-1.9 29.7-1.9 40.8 0 7.8 1.3 14.3 5.9 17.9 12.4 3.5 6.5 3.8 14.2 0.8 21.3-4.4 10.3-18.2 24.2-21 27-4.8 4.8-11.5 7.5-18.3 7.5z m-3.8-21.5c1.1 1 2.3 1.5 3.8 1.5 1.6 0 3.2-0.6 4.2-1.7 5.6-5.6 14.6-15.6 16.7-20.6 0.6-1.4 0.6-2.8 0-3.9-0.6-1.2-2-2-3.7-2.3-9.1-1.6-23.7-1.6-34.6 0-2.2 0.3-3 1.3-3.3 2-0.7 1.4-0.6 3-0.2 3.7 1.6 3.5 10.1 13.7 17.1 21.3z" fill="#543630" p-id="1905"></path><path d="M584 191.2s18.2-19.1 31.4-0.1C632.3 215.5 590 295 669.6 321c69 22.5 133.8 2.6 145.1-37.1 23.9-83.5-146.2-203-230.7-92.7z" fill="#FFFFFF" p-id="1906"></path><path d="M727 340.5c-19.5 0-40.2-3.3-60.5-10-61.3-20-58.7-69.9-57.1-103 0.6-12.7 1.3-25.7-2.2-30.8-2.7-3.9-4.7-4.1-5.4-4.1-3.9-0.3-9.1 3.8-10.6 5.4-3.7 3.8-9.7 4.2-13.7 0.7s-4.7-9.5-1.4-13.7c20.7-27.1 48.4-43.5 80-47.4 27.3-3.4 56.8 2.3 85.2 16.6 27.4 13.8 51 34.2 66.7 57.5 17.1 25.4 22.9 52 16.3 75-4.7 16.4-16.8 30.1-34.9 39.8-17.6 9.3-39.2 14-62.4 14zM613.4 175.8c3.4 1.9 7 4.9 10.3 9.6 7.4 10.6 6.6 25.7 5.7 43.2-0.8 15.6-1.7 33.3 3.7 48.4 5.9 16.7 18.5 27.7 39.7 34.6 39 12.8 80.2 11.7 107.4-2.7 13.2-7 21.9-16.6 25-27.6 4.9-17.2 0.1-37.9-13.6-58.3-13.6-20.2-35.1-38.7-59.1-50.8-24.8-12.5-50.3-17.5-73.7-14.6-17 2-32.1 8.2-45.4 18.2z" fill="#543630" p-id="1907"></path><path d="M373.9 605.4m-53.9 0a53.9 53.9 0 1 0 107.8 0 53.9 53.9 0 1 0-107.8 0Z" fill="#FFF5DC" p-id="1908"></path><path d="M373.9 669.3c-35.2 0-63.9-28.7-63.9-63.9s28.7-63.9 63.9-63.9 63.9 28.7 63.9 63.9-28.7 63.9-63.9 63.9z m0-107.8c-24.2 0-43.9 19.7-43.9 43.9s19.7 43.9 43.9 43.9 43.9-19.7 43.9-43.9-19.7-43.9-43.9-43.9z" fill="#543630" p-id="1909"></path><path d="M373.9 605.4m-17.6 0a17.6 17.6 0 1 0 35.2 0 17.6 17.6 0 1 0-35.2 0Z" fill="#543630" p-id="1910"></path><path d="M650.1 605.4m-53.9 0a53.9 53.9 0 1 0 107.8 0 53.9 53.9 0 1 0-107.8 0Z" fill="#FFF5DC" p-id="1911"></path><path d="M650.1 669.3c-35.2 0-63.9-28.7-63.9-63.9s28.7-63.9 63.9-63.9 63.9 28.7 63.9 63.9-28.6 63.9-63.9 63.9z m0-107.8c-24.2 0-43.9 19.7-43.9 43.9s19.7 43.9 43.9 43.9 43.9-19.7 43.9-43.9-19.7-43.9-43.9-43.9z" fill="#543630" p-id="1912"></path><path d="M650.1 605.4m-17.6 0a17.6 17.6 0 1 0 35.2 0 17.6 17.6 0 1 0-35.2 0Z" fill="#543630" p-id="1913"></path><path d="M478.7 826.1c-2.6 0-5.1-1-7.1-2.9-3.9-3.9-3.9-10.2 0-14.1l33.3-33.3c3.9-3.9 10.2-3.9 14.1 0 3.9 3.9 3.9 10.2 0 14.1l-33.3 33.3c-1.9 1.9-4.5 2.9-7 2.9z" fill="#543630" p-id="1914"></path><path d="M545.3 826.1c-2.6 0-5.1-1-7.1-2.9l-33.3-33.3c-3.9-3.9-3.9-10.2 0-14.1 3.9-3.9 10.2-3.9 14.1 0l33.3 33.3c3.9 3.9 3.9 10.2 0 14.1-1.9 1.9-4.4 2.9-7 2.9z" fill="#543630" p-id="1915"></path><path d="M266.6 690L87 700.5" fill="#FF6687" p-id="1916"></path><path d="M87 710.5c-5.3 0-9.7-4.1-10-9.4-0.3-5.5 3.9-10.2 9.4-10.6L266 680c5.5-0.3 10.2 3.9 10.6 9.4 0.3 5.5-3.9 10.2-9.4 10.6L87.6 710.5H87z" fill="#543630" p-id="1917"></path><path d="M275 733L96.8 787.8" fill="#FF6687" p-id="1918"></path><path d="M96.8 797.8c-4.3 0-8.2-2.8-9.6-7.1-1.6-5.3 1.3-10.9 6.6-12.5L272 723.4c5.3-1.6 10.9 1.3 12.5 6.6 1.6 5.3-1.3 10.9-6.6 12.5L99.7 797.3c-0.9 0.3-1.9 0.5-2.9 0.5z" fill="#543630" p-id="1919"></path><path d="M757.4 690L937 700.5" fill="#FF6687" p-id="1920"></path><path d="M937 710.5h-0.6L756.9 700c-5.5-0.3-9.7-5.1-9.4-10.6 0.3-5.5 5-9.7 10.6-9.4l179.6 10.5c5.5 0.3 9.7 5.1 9.4 10.6-0.4 5.3-4.8 9.4-10.1 9.4z" fill="#543630" p-id="1921"></path><path d="M749 733l178.2 54.8" fill="#FF6687" p-id="1922"></path><path d="M927.2 797.8c-1 0-2-0.1-2.9-0.4L746 742.5c-5.3-1.6-8.2-7.2-6.6-12.5 1.6-5.3 7.2-8.2 12.5-6.6l178.2 54.8c5.3 1.6 8.2 7.2 6.6 12.5-1.3 4.3-5.2 7.1-9.5 7.1z" fill="#543630" p-id="1923"></path></svg>